<svg viewBox="0 0 120 112" xmlns="http://www.w3.org/2000/svg" role="img" aria-label="Process BI">
  <defs>
    <linearGradient id="fBar" x1="0" y1="1" x2="0" y2="0"><stop offset="0" stop-color="#1A4AC2"></stop><stop offset="1" stop-color="#2E6BF6"></stop></linearGradient>
    <linearGradient id="fTop" x1="0" y1="1" x2="0" y2="0"><stop offset="0" stop-color="#2E6BF6"></stop><stop offset="1" stop-color="#46D5FF"></stop></linearGradient>
    <linearGradient id="fLine" x1="0" y1="1" x2="1" y2="0"><stop offset="0" stop-color="#2E6BF6"></stop><stop offset="1" stop-color="#46D5FF"></stop></linearGradient>
  </defs>
  <rect x="8" y="74" width="17" height="26" rx="6" fill="url(#fBar)"></rect>
  <rect x="33" y="56" width="17" height="44" rx="6" fill="url(#fBar)"></rect>
  <rect x="58" y="34" width="17" height="66" rx="6" fill="url(#fBar)"></rect>
  <rect x="83" y="12" width="17" height="88" rx="6" fill="url(#fTop)"></rect>
  <path d="M16.5 74 L41.5 56 L66.5 34 L91.5 12 L116 2" fill="none" stroke="url(#fLine)" stroke-width="5" stroke-linecap="round" stroke-linejoin="round"></path>
  <path d="M116 2 L103 3.5 M116 2 L114.5 15" fill="none" stroke="#46D5FF" stroke-width="5" stroke-linecap="round" stroke-linejoin="round"></path>
  <circle cx="91.5" cy="12" r="6" fill="#06182F" stroke="#46D5FF" stroke-width="3"></circle>
  <circle cx="66.5" cy="34" r="6" fill="#06182F" stroke="#46D5FF" stroke-width="3"></circle>
  <circle cx="41.5" cy="56" r="6" fill="#06182F" stroke="#46D5FF" stroke-width="3"></circle>
  <circle cx="16.5" cy="74" r="6" fill="#06182F" stroke="#46D5FF" stroke-width="3"></circle>
</svg>